<?xml version="1.0" encoding="UTF-8" standalone="no"?>
<!-- Created with Inkscape (http://www.inkscape.org/) -->

<svg
   version="1.1"
   id="svg2"
   width="302.36267"
   height="113.38587"
   viewBox="0 0 302.36267 113.38587"
   sodipodi:docname="HGT-Logo-grey-orange-RGB.ai"
   xmlns:inkscape="http://www.inkscape.org/namespaces/inkscape"
   xmlns:sodipodi="http://sodipodi.sourceforge.net/DTD/sodipodi-0.dtd"
   xmlns="http://www.w3.org/2000/svg"
   xmlns:svg="http://www.w3.org/2000/svg">
  <defs
     id="defs6">
    <clipPath
       clipPathUnits="userSpaceOnUse"
       id="clipPath20">
      <path
         d="M 0,85.039 H 226.772 V 0 H 0 Z"
         id="path18" />
    </clipPath>
    <clipPath
       clipPathUnits="userSpaceOnUse"
       id="clipPath82">
      <path
         d="M 0,85.039 H 226.772 V 0 H 0 Z"
         id="path80" />
    </clipPath>
  </defs>
  <sodipodi:namedview
     id="namedview4"
     pagecolor="#ffffff"
     bordercolor="#000000"
     borderopacity="0.25"
     inkscape:showpageshadow="2"
     inkscape:pageopacity="0.0"
     inkscape:pagecheckerboard="0"
     inkscape:deskcolor="#d1d1d1" />
  <g
     id="g8"
     inkscape:groupmode="layer"
     inkscape:label="HGT-Logo-grey-orange-RGB"
     transform="matrix(1.3333333,0,0,-1.3333333,0,113.38587)">
    <g
       id="g10"
       transform="translate(75.0484,60.9101)">
      <path
         d="M 0,0 V -5.525 H 6.768 V 0 h 1.71 v -12.852 h -1.71 v 5.886 H 0 v -5.886 H -1.71 V 0 Z"
         style="fill:#222d37;fill-opacity:1;fill-rule:nonzero;stroke:none"
         id="path12" />
    </g>
    <g
       id="g14">
      <g
         id="g16"
         clip-path="url(#clipPath20)">
        <g
           id="g22"
           transform="translate(91.8424,52.8642)">
          <path
             d="m 0,0 c -0.192,-0.144 -0.444,-0.247 -0.756,-0.313 -0.312,-0.066 -0.639,-0.12 -0.981,-0.162 -0.342,-0.042 -0.687,-0.089 -1.035,-0.143 -0.348,-0.054 -0.66,-0.14 -0.936,-0.26 -0.276,-0.119 -0.501,-0.289 -0.675,-0.51 -0.174,-0.221 -0.261,-0.522 -0.261,-0.904 0,-0.251 0.051,-0.463 0.153,-0.637 0.102,-0.173 0.234,-0.313 0.396,-0.421 0.162,-0.107 0.351,-0.184 0.567,-0.232 0.216,-0.048 0.444,-0.071 0.684,-0.071 0.504,0 0.936,0.068 1.296,0.205 0.36,0.137 0.654,0.31 0.882,0.519 0.228,0.209 0.396,0.437 0.504,0.681 C -0.054,-2.003 0,-1.772 0,-1.558 Z M 2.484,-4.77 C 2.22,-4.926 1.854,-5.004 1.386,-5.004 c -0.396,0 -0.711,0.111 -0.945,0.333 -0.234,0.222 -0.351,0.585 -0.351,1.089 -0.42,-0.504 -0.909,-0.867 -1.467,-1.089 -0.558,-0.222 -1.161,-0.333 -1.809,-0.333 -0.42,0 -0.819,0.048 -1.197,0.145 -0.378,0.095 -0.705,0.245 -0.981,0.45 -0.276,0.203 -0.495,0.471 -0.657,0.801 -0.162,0.33 -0.243,0.728 -0.243,1.196 0,0.528 0.09,0.96 0.27,1.297 0.18,0.335 0.417,0.608 0.711,0.818 0.294,0.21 0.63,0.369 1.008,0.478 0.378,0.107 0.765,0.197 1.161,0.269 0.42,0.084 0.819,0.147 1.197,0.19 0.378,0.042 0.711,0.101 0.999,0.179 0.288,0.078 0.516,0.192 0.684,0.342 0.168,0.151 0.252,0.369 0.252,0.657 0,0.336 -0.063,0.606 -0.189,0.81 -0.126,0.204 -0.288,0.36 -0.486,0.469 -0.198,0.107 -0.42,0.179 -0.666,0.216 C -1.569,3.349 -1.812,3.366 -2.052,3.366 -2.7,3.366 -3.24,3.243 -3.672,2.997 -4.104,2.751 -4.338,2.286 -4.374,1.603 h -1.53 c 0.024,0.576 0.144,1.061 0.36,1.458 0.216,0.395 0.504,0.716 0.864,0.962 0.36,0.247 0.771,0.423 1.233,0.532 0.462,0.107 0.957,0.162 1.485,0.162 0.42,0 0.837,-0.03 1.251,-0.091 C -0.297,4.566 0.078,4.443 0.414,4.258 0.75,4.072 1.02,3.813 1.224,3.477 1.428,3.142 1.53,2.704 1.53,2.166 v -4.778 c 0,-0.36 0.021,-0.622 0.063,-0.79 0.042,-0.168 0.183,-0.251 0.423,-0.251 0.132,0 0.288,0.023 0.468,0.071 z"
             style="fill:#222d37;fill-opacity:1;fill-rule:nonzero;stroke:none"
             id="path24" />
        </g>
        <g
           id="g26"
           transform="translate(97.1881,57.3642)">
          <path
             d="m 0,0 v -1.476 h 0.036 c 0.636,1.128 1.644,1.693 3.024,1.693 0.612,0 1.122,-0.085 1.53,-0.253 0.408,-0.168 0.738,-0.401 0.99,-0.701 0.252,-0.301 0.429,-0.658 0.531,-1.072 0.102,-0.414 0.153,-0.873 0.153,-1.377 v -6.12 h -1.53 v 6.3 c 0,0.576 -0.168,1.032 -0.504,1.368 -0.336,0.336 -0.798,0.504 -1.386,0.504 -0.468,0 -0.873,-0.072 -1.215,-0.216 C 1.287,-1.494 1.002,-1.698 0.774,-1.962 0.546,-2.226 0.375,-2.535 0.261,-2.889 0.147,-3.243 0.09,-3.63 0.09,-4.05 V -9.306 H -1.44 V 0 Z"
             style="fill:#222d37;fill-opacity:1;fill-rule:nonzero;stroke:none"
             id="path28" />
        </g>
        <g
           id="g30"
           transform="translate(106.9259,50.1376)">
          <path
             d="m 0,0 c 0.144,-0.234 0.333,-0.42 0.567,-0.558 0.234,-0.138 0.498,-0.237 0.792,-0.297 0.294,-0.06 0.597,-0.09 0.909,-0.09 0.24,0 0.492,0.018 0.756,0.054 0.264,0.036 0.507,0.102 0.729,0.198 0.222,0.095 0.405,0.237 0.549,0.422 0.144,0.187 0.216,0.424 0.216,0.711 0,0.397 -0.15,0.697 -0.45,0.901 C 3.768,1.545 3.393,1.71 2.943,1.836 2.493,1.962 2.004,2.076 1.476,2.178 0.948,2.279 0.459,2.424 0.009,2.61 c -0.45,0.186 -0.825,0.447 -1.125,0.783 -0.3,0.336 -0.45,0.803 -0.45,1.404 0,0.468 0.105,0.87 0.315,1.206 0.21,0.336 0.48,0.608 0.81,0.819 0.33,0.209 0.702,0.365 1.116,0.468 C 1.089,7.392 1.5,7.443 1.908,7.443 2.436,7.443 2.922,7.397 3.366,7.308 3.81,7.218 4.203,7.062 4.545,6.84 4.887,6.618 5.16,6.318 5.364,5.939 5.568,5.562 5.688,5.091 5.724,4.527 H 4.194 C 4.17,4.827 4.092,5.076 3.96,5.273 3.828,5.472 3.66,5.631 3.456,5.751 3.252,5.871 3.027,5.958 2.781,6.012 2.535,6.065 2.286,6.093 2.034,6.093 1.806,6.093 1.575,6.075 1.341,6.039 1.107,6.003 0.894,5.939 0.702,5.85 0.51,5.76 0.354,5.64 0.234,5.49 0.114,5.34 0.054,5.145 0.054,4.905 0.054,4.641 0.147,4.422 0.333,4.248 0.519,4.074 0.756,3.93 1.044,3.815 1.332,3.702 1.656,3.605 2.016,3.528 2.376,3.45 2.736,3.369 3.096,3.285 3.48,3.201 3.855,3.099 4.221,2.979 4.587,2.858 4.911,2.7 5.193,2.502 5.475,2.304 5.703,2.055 5.877,1.755 6.051,1.455 6.138,1.083 6.138,0.639 6.138,0.075 6.021,-0.394 5.787,-0.765 5.553,-1.137 5.247,-1.437 4.869,-1.665 4.491,-1.894 4.065,-2.052 3.591,-2.143 3.117,-2.232 2.646,-2.277 2.178,-2.277 c -0.516,0 -1.008,0.054 -1.476,0.162 -0.468,0.108 -0.882,0.285 -1.242,0.531 -0.36,0.246 -0.648,0.569 -0.864,0.972 -0.216,0.402 -0.336,0.891 -0.36,1.466 h 1.53 C -0.222,0.519 -0.144,0.234 0,0"
             style="fill:#222d37;fill-opacity:1;fill-rule:nonzero;stroke:none"
             id="path32" />
        </g>
        <g
           id="g34"
           transform="translate(120.9752,54.6288)">
          <path
             d="m 0,0 c -0.138,0.323 -0.324,0.603 -0.558,0.837 -0.234,0.233 -0.51,0.42 -0.828,0.558 -0.318,0.137 -0.669,0.207 -1.052,0.207 -0.397,0 -0.754,-0.07 -1.072,-0.207 C -3.828,1.257 -4.101,1.067 -4.329,0.828 -4.557,0.588 -4.737,0.309 -4.869,-0.01 -5.001,-0.327 -5.079,-0.666 -5.103,-1.026 H 0.243 C 0.219,-0.666 0.138,-0.324 0,0 m 0.369,-5.977 c -0.696,-0.528 -1.572,-0.792 -2.628,-0.792 -0.744,0 -1.388,0.121 -1.935,0.361 -0.546,0.24 -1.005,0.576 -1.377,1.008 -0.372,0.431 -0.651,0.948 -0.837,1.547 -0.186,0.601 -0.291,1.254 -0.315,1.962 0,0.708 0.108,1.357 0.324,1.945 0.216,0.588 0.519,1.097 0.909,1.53 0.39,0.432 0.852,0.768 1.386,1.008 0.534,0.24 1.119,0.36 1.755,0.36 0.828,0 1.515,-0.172 2.061,-0.514 C 0.258,2.097 0.696,1.661 1.026,1.134 1.356,0.605 1.584,0.029 1.71,-0.595 1.836,-1.219 1.887,-1.812 1.863,-2.376 h -6.966 c -0.012,-0.408 0.037,-0.796 0.144,-1.161 0.108,-0.366 0.282,-0.691 0.522,-0.973 0.24,-0.281 0.546,-0.507 0.918,-0.675 0.372,-0.168 0.81,-0.252 1.314,-0.252 0.648,0 1.18,0.151 1.593,0.451 0.414,0.299 0.687,0.756 0.819,1.368 H 1.719 C 1.515,-4.662 1.065,-5.448 0.369,-5.977"
             style="fill:#222d37;fill-opacity:1;fill-rule:nonzero;stroke:none"
             id="path36" />
        </g>
        <g
           id="g38"
           transform="translate(130.1822,52.8642)">
          <path
             d="m 0,0 c -0.192,-0.144 -0.444,-0.247 -0.756,-0.313 -0.312,-0.066 -0.639,-0.12 -0.981,-0.162 -0.342,-0.042 -0.687,-0.089 -1.034,-0.143 -0.349,-0.054 -0.661,-0.14 -0.937,-0.26 -0.276,-0.119 -0.501,-0.289 -0.675,-0.51 -0.174,-0.221 -0.261,-0.522 -0.261,-0.904 0,-0.251 0.051,-0.463 0.153,-0.637 0.102,-0.173 0.234,-0.313 0.396,-0.421 0.162,-0.107 0.351,-0.184 0.567,-0.232 0.216,-0.048 0.444,-0.071 0.684,-0.071 0.504,0 0.936,0.068 1.296,0.205 0.361,0.137 0.654,0.31 0.882,0.519 0.228,0.209 0.396,0.437 0.504,0.681 C -0.054,-2.003 0,-1.772 0,-1.558 Z M 2.484,-4.77 C 2.22,-4.926 1.854,-5.004 1.386,-5.004 c -0.396,0 -0.711,0.111 -0.945,0.333 -0.234,0.222 -0.351,0.585 -0.351,1.089 -0.42,-0.504 -0.909,-0.867 -1.467,-1.089 -0.558,-0.222 -1.161,-0.333 -1.809,-0.333 -0.42,0 -0.819,0.048 -1.197,0.145 -0.378,0.095 -0.705,0.245 -0.981,0.45 -0.276,0.203 -0.494,0.471 -0.657,0.801 -0.162,0.33 -0.243,0.728 -0.243,1.196 0,0.528 0.09,0.96 0.27,1.297 0.181,0.335 0.417,0.608 0.711,0.818 0.294,0.21 0.63,0.369 1.009,0.478 0.378,0.107 0.764,0.197 1.16,0.269 0.42,0.084 0.819,0.147 1.197,0.19 0.378,0.042 0.711,0.101 0.999,0.179 0.288,0.078 0.516,0.192 0.685,0.342 0.167,0.151 0.252,0.369 0.252,0.657 0,0.336 -0.064,0.606 -0.19,0.81 -0.126,0.204 -0.288,0.36 -0.486,0.469 -0.197,0.107 -0.42,0.179 -0.666,0.216 C -1.569,3.349 -1.812,3.366 -2.052,3.366 -2.7,3.366 -3.24,3.243 -3.672,2.997 -4.104,2.751 -4.338,2.286 -4.374,1.603 h -1.53 c 0.024,0.576 0.144,1.061 0.36,1.458 0.216,0.395 0.504,0.716 0.864,0.962 0.36,0.247 0.771,0.423 1.233,0.532 0.462,0.107 0.957,0.162 1.485,0.162 0.42,0 0.837,-0.03 1.251,-0.091 C -0.297,4.566 0.078,4.443 0.414,4.258 0.75,4.072 1.02,3.813 1.225,3.477 1.428,3.142 1.53,2.704 1.53,2.166 v -4.778 c 0,-0.36 0.021,-0.622 0.063,-0.79 0.042,-0.168 0.183,-0.251 0.424,-0.251 0.131,0 0.287,0.023 0.467,0.071 z"
             style="fill:#222d37;fill-opacity:1;fill-rule:nonzero;stroke:none"
             id="path40" />
        </g>
        <g
           id="g42"
           transform="translate(138.066,57.3642)">
          <path
             d="m 0,0 v -1.35 h -1.854 v -5.778 c 0,-0.18 0.015,-0.324 0.044,-0.432 0.031,-0.108 0.087,-0.192 0.172,-0.252 0.083,-0.06 0.201,-0.099 0.351,-0.117 0.149,-0.017 0.345,-0.027 0.585,-0.027 H 0 v -1.35 h -1.17 c -0.396,0 -0.735,0.028 -1.018,0.081 -0.281,0.054 -0.509,0.154 -0.683,0.297 -0.174,0.145 -0.303,0.348 -0.387,0.613 -0.084,0.263 -0.126,0.611 -0.126,1.044 V -1.35 H -4.968 V 0 h 1.584 v 2.79 h 1.53 V 0 Z"
             style="fill:#222d37;fill-opacity:1;fill-rule:nonzero;stroke:none"
             id="path44" />
        </g>
        <path
           d="m 141.378,48.059 h -1.529 v 9.306 h 1.529 z m -1.53,12.851 h 1.529 v -1.871 h -1.529 z"
           style="fill:#222d37;fill-opacity:1;fill-rule:nonzero;stroke:none"
           id="path46" />
        <g
           id="g48"
           transform="translate(149.315,55.7441)">
          <path
             d="m 0,0 c -0.384,0.324 -0.899,0.486 -1.548,0.486 -0.552,0 -1.014,-0.101 -1.386,-0.305 -0.372,-0.204 -0.669,-0.475 -0.89,-0.811 -0.223,-0.336 -0.382,-0.723 -0.478,-1.161 -0.095,-0.438 -0.143,-0.891 -0.143,-1.358 0,-0.433 0.05,-0.853 0.152,-1.26 0.103,-0.408 0.262,-0.772 0.478,-1.09 0.215,-0.317 0.498,-0.572 0.845,-0.765 0.348,-0.192 0.762,-0.288 1.242,-0.288 0.756,0 1.347,0.198 1.773,0.594 0.426,0.396 0.687,0.954 0.783,1.675 H 2.395 C 2.227,-5.436 1.797,-6.324 1.107,-6.947 0.417,-7.571 -0.521,-7.884 -1.71,-7.884 c -0.708,0 -1.335,0.114 -1.881,0.342 -0.546,0.229 -1.002,0.553 -1.368,0.973 -0.366,0.42 -0.642,0.921 -0.828,1.503 -0.186,0.582 -0.278,1.22 -0.278,1.917 0,0.695 0.089,1.346 0.269,1.953 0.181,0.605 0.453,1.134 0.819,1.584 0.367,0.45 0.826,0.803 1.377,1.061 0.552,0.258 1.195,0.388 1.926,0.388 0.528,0 1.024,-0.064 1.486,-0.19 C 0.273,1.521 0.682,1.326 1.035,1.062 1.39,0.799 1.681,0.466 1.908,0.063 2.136,-0.339 2.28,-0.815 2.341,-1.367 H 0.757 C 0.637,-0.779 0.385,-0.323 0,0"
             style="fill:#222d37;fill-opacity:1;fill-rule:nonzero;stroke:none"
             id="path50" />
        </g>
        <g
           id="g52"
           transform="translate(166.4156,48.2119)">
          <path
             d="m 0,0 c -0.744,-0.294 -1.494,-0.441 -2.25,-0.441 -0.961,0 -1.818,0.177 -2.574,0.531 -0.756,0.353 -1.399,0.831 -1.926,1.431 -0.528,0.599 -0.931,1.29 -1.206,2.07 -0.276,0.779 -0.414,1.59 -0.414,2.43 0,0.936 0.129,1.827 0.387,2.672 0.257,0.847 0.641,1.587 1.152,2.224 0.51,0.636 1.145,1.143 1.908,1.521 0.762,0.377 1.652,0.567 2.673,0.567 0.695,0 1.353,-0.081 1.971,-0.243 0.618,-0.162 1.17,-0.417 1.656,-0.765 0.485,-0.349 0.894,-0.79 1.224,-1.323 0.33,-0.534 0.554,-1.179 0.674,-1.936 h -1.71 c -0.084,0.492 -0.24,0.915 -0.467,1.27 -0.229,0.353 -0.51,0.644 -0.846,0.873 -0.336,0.227 -0.718,0.398 -1.144,0.513 -0.425,0.114 -0.879,0.17 -1.358,0.17 -0.78,0 -1.449,-0.156 -2.007,-0.467 C -4.815,10.784 -5.271,10.374 -5.625,9.863 -5.979,9.354 -6.24,8.771 -6.408,8.118 -6.576,7.464 -6.66,6.795 -6.66,6.11 c 0,-0.672 0.096,-1.316 0.288,-1.934 0.191,-0.618 0.474,-1.164 0.846,-1.638 0.372,-0.475 0.831,-0.852 1.377,-1.135 0.545,-0.281 1.178,-0.423 1.899,-0.423 0.672,0 1.266,0.109 1.781,0.325 0.517,0.216 0.951,0.512 1.306,0.89 0.353,0.378 0.621,0.823 0.801,1.332 0.179,0.51 0.258,1.06 0.234,1.648 H -2.232 V 6.614 H 3.401 V -0.153 H 2.321 L 1.872,1.448 C 1.368,0.776 0.743,0.294 0,0"
             style="fill:#222d37;fill-opacity:1;fill-rule:nonzero;stroke:none"
             id="path54" />
        </g>
        <path
           d="m 173.705,48.059 h -1.529 v 12.852 h 1.529 z"
           style="fill:#222d37;fill-opacity:1;fill-rule:nonzero;stroke:none"
           id="path56" />
        <g
           id="g58"
           transform="translate(177.4215,51.1992)">
          <path
             d="m 0,0 c 0.15,-0.437 0.357,-0.804 0.621,-1.098 0.264,-0.294 0.573,-0.519 0.927,-0.674 0.354,-0.157 0.729,-0.235 1.125,-0.235 0.396,0 0.771,0.078 1.125,0.235 0.354,0.155 0.663,0.38 0.927,0.674 0.264,0.294 0.471,0.661 0.621,1.098 0.15,0.438 0.225,0.939 0.225,1.503 0,0.564 -0.075,1.065 -0.225,1.504 C 5.196,3.444 4.989,3.813 4.725,4.113 4.461,4.413 4.152,4.642 3.798,4.798 3.444,4.953 3.069,5.031 2.673,5.031 2.277,5.031 1.902,4.953 1.548,4.798 1.194,4.642 0.885,4.413 0.621,4.113 0.357,3.813 0.15,3.444 0,3.007 -0.15,2.568 -0.225,2.067 -0.225,1.503 -0.225,0.939 -0.15,0.438 0,0 m -1.557,3.42 c 0.192,0.595 0.48,1.11 0.864,1.549 0.384,0.437 0.858,0.782 1.422,1.034 0.564,0.253 1.212,0.379 1.944,0.379 0.744,0 1.395,-0.126 1.953,-0.379 C 5.184,5.751 5.655,5.406 6.039,4.969 6.423,4.53 6.711,4.015 6.903,3.42 7.095,2.826 7.191,2.188 7.191,1.503 7.191,0.819 7.095,0.184 6.903,-0.404 6.711,-0.993 6.423,-1.506 6.039,-1.943 5.655,-2.382 5.184,-2.724 4.626,-2.97 4.068,-3.216 3.417,-3.339 2.673,-3.339 c -0.732,0 -1.38,0.123 -1.944,0.369 -0.564,0.246 -1.038,0.588 -1.422,1.027 -0.384,0.437 -0.672,0.95 -0.864,1.539 -0.192,0.588 -0.288,1.223 -0.288,1.907 0,0.685 0.096,1.323 0.288,1.917"
             style="fill:#222d37;fill-opacity:1;fill-rule:nonzero;stroke:none"
             id="path60" />
        </g>
        <g
           id="g62"
           transform="translate(193.4957,54.0615)">
          <path
             d="m 0,0 c -0.114,0.414 -0.288,0.783 -0.522,1.107 -0.234,0.324 -0.535,0.582 -0.9,0.774 -0.366,0.192 -0.795,0.288 -1.287,0.288 -0.517,0 -0.954,-0.102 -1.314,-0.306 C -4.383,1.659 -4.678,1.392 -4.905,1.062 -5.133,0.731 -5.298,0.357 -5.4,-0.062 c -0.102,-0.421 -0.153,-0.847 -0.153,-1.279 0,-0.456 0.054,-0.897 0.162,-1.323 0.108,-0.426 0.279,-0.801 0.513,-1.125 0.233,-0.324 0.537,-0.585 0.909,-0.783 0.371,-0.198 0.822,-0.297 1.35,-0.297 0.528,0 0.969,0.101 1.323,0.307 0.354,0.203 0.639,0.473 0.855,0.809 0.215,0.336 0.372,0.72 0.468,1.152 0.096,0.432 0.144,0.875 0.144,1.332 C 0.171,-0.837 0.114,-0.414 0,0 M -5.499,6.849 V 2.043 h 0.036 c 0.252,0.516 0.648,0.891 1.188,1.125 0.54,0.234 1.134,0.352 1.782,0.352 0.72,0 1.347,-0.133 1.881,-0.397 C -0.078,2.859 0.366,2.502 0.72,2.052 1.073,1.603 1.341,1.083 1.521,0.495 c 0.18,-0.588 0.27,-1.212 0.27,-1.872 0,-0.66 -0.087,-1.284 -0.261,-1.872 C 1.355,-3.837 1.092,-4.35 0.738,-4.788 0.384,-5.227 -0.061,-5.571 -0.594,-5.823 c -0.534,-0.252 -1.155,-0.378 -1.863,-0.378 -0.229,0 -0.483,0.024 -0.765,0.072 -0.282,0.048 -0.561,0.126 -0.838,0.234 -0.275,0.108 -0.537,0.255 -0.782,0.441 -0.246,0.186 -0.453,0.417 -0.621,0.693 h -0.036 v -1.242 h -1.53 V 6.849 Z"
             style="fill:#222d37;fill-opacity:1;fill-rule:nonzero;stroke:none"
             id="path64" />
        </g>
        <g
           id="g66"
           transform="translate(202.8463,52.8642)">
          <path
             d="m 0,0 c -0.192,-0.144 -0.444,-0.247 -0.756,-0.313 -0.312,-0.066 -0.639,-0.12 -0.981,-0.162 -0.342,-0.042 -0.687,-0.089 -1.034,-0.143 -0.349,-0.054 -0.661,-0.14 -0.937,-0.26 -0.276,-0.119 -0.501,-0.289 -0.675,-0.51 -0.174,-0.221 -0.261,-0.522 -0.261,-0.904 0,-0.251 0.051,-0.463 0.153,-0.637 0.102,-0.173 0.234,-0.313 0.396,-0.421 0.162,-0.107 0.351,-0.184 0.567,-0.232 0.216,-0.048 0.444,-0.071 0.684,-0.071 0.504,0 0.936,0.068 1.296,0.205 0.361,0.137 0.654,0.31 0.882,0.519 0.228,0.209 0.396,0.437 0.504,0.681 C -0.054,-2.003 0,-1.772 0,-1.558 Z M 2.484,-4.77 C 2.22,-4.926 1.854,-5.004 1.386,-5.004 c -0.396,0 -0.711,0.111 -0.945,0.333 -0.234,0.222 -0.351,0.585 -0.351,1.089 -0.42,-0.504 -0.909,-0.867 -1.467,-1.089 -0.558,-0.222 -1.161,-0.333 -1.809,-0.333 -0.42,0 -0.819,0.048 -1.197,0.145 -0.378,0.095 -0.705,0.245 -0.981,0.45 -0.276,0.203 -0.494,0.471 -0.657,0.801 -0.162,0.33 -0.243,0.728 -0.243,1.196 0,0.528 0.09,0.96 0.27,1.297 0.181,0.335 0.417,0.608 0.711,0.818 0.294,0.21 0.63,0.369 1.009,0.478 0.378,0.107 0.764,0.197 1.16,0.269 0.42,0.084 0.819,0.147 1.197,0.19 0.378,0.042 0.711,0.101 0.999,0.179 0.288,0.078 0.516,0.192 0.685,0.342 0.167,0.151 0.252,0.369 0.252,0.657 0,0.336 -0.064,0.606 -0.19,0.81 -0.126,0.204 -0.288,0.36 -0.486,0.469 -0.197,0.107 -0.42,0.179 -0.666,0.216 C -1.569,3.349 -1.812,3.366 -2.052,3.366 -2.7,3.366 -3.24,3.243 -3.672,2.997 -4.104,2.751 -4.338,2.286 -4.374,1.603 h -1.53 c 0.024,0.576 0.144,1.061 0.36,1.458 0.216,0.395 0.504,0.716 0.864,0.962 0.36,0.247 0.771,0.423 1.233,0.532 0.462,0.107 0.957,0.162 1.485,0.162 0.42,0 0.837,-0.03 1.251,-0.091 C -0.297,4.566 0.078,4.443 0.414,4.258 0.75,4.072 1.02,3.813 1.225,3.477 1.428,3.142 1.53,2.704 1.53,2.166 v -4.778 c 0,-0.36 0.021,-0.622 0.063,-0.79 0.042,-0.168 0.183,-0.251 0.424,-0.251 0.131,0 0.287,0.023 0.467,0.071 z"
             style="fill:#222d37;fill-opacity:1;fill-rule:nonzero;stroke:none"
             id="path68" />
        </g>
        <path
           d="m 208.372,48.059 h -1.529 v 12.852 h 1.529 z"
           style="fill:#222d37;fill-opacity:1;fill-rule:nonzero;stroke:none"
           id="path70" />
      </g>
    </g>
    <g
       id="g72"
       transform="translate(126.8853,34.5912)">
      <path
         d="M 0,0 V 2.376 H 10.53 V 0 H 6.679 V -10.476 H 3.853 L 3.853,0 Z"
         style="fill:#ff6600;fill-opacity:1;fill-rule:nonzero;stroke:none"
         id="path74" />
    </g>
    <g
       id="g76">
      <g
         id="g78"
         clip-path="url(#clipPath82)">
        <g
           id="g84"
           transform="translate(142.2486,31.2436)">
          <path
             d="M 0,0 C -0.306,0.336 -0.771,0.504 -1.396,0.504 -1.804,0.504 -2.142,0.435 -2.412,0.297 -2.683,0.159 -2.897,-0.012 -3.06,-0.216 -3.222,-0.42 -3.337,-0.636 -3.402,-0.864 -3.468,-1.092 -3.507,-1.296 -3.519,-1.476 H 0.639 C 0.519,-0.828 0.306,-0.336 0,0 m -2.89,-4.896 c 0.385,-0.372 0.937,-0.558 1.657,-0.558 0.515,0 0.96,0.129 1.332,0.387 0.372,0.258 0.599,0.531 0.683,0.819 h 2.25 C 2.673,-5.364 2.12,-6.162 1.377,-6.642 c -0.744,-0.48 -1.645,-0.72 -2.7,-0.72 -0.733,0 -1.393,0.117 -1.981,0.351 -0.588,0.234 -1.086,0.567 -1.494,0.999 -0.407,0.432 -0.723,0.948 -0.944,1.548 -0.222,0.6 -0.333,1.26 -0.333,1.98 0,0.696 0.113,1.344 0.342,1.944 0.228,0.6 0.552,1.119 0.972,1.557 0.42,0.438 0.92,0.783 1.502,1.035 0.582,0.252 1.228,0.378 1.936,0.378 0.792,0 1.482,-0.153 2.07,-0.459 0.588,-0.306 1.07,-0.717 1.449,-1.233 0.377,-0.516 0.651,-1.104 0.819,-1.764 0.168,-0.66 0.228,-1.35 0.179,-2.07 h -6.713 c 0.036,-0.828 0.246,-1.428 0.629,-1.8"
             style="fill:#ff6600;fill-opacity:1;fill-rule:nonzero;stroke:none"
             id="path86" />
        </g>
        <g
           id="g88"
           transform="translate(149.3853,33.4213)">
          <path
             d="m 0,0 v -1.728 h 0.036 c 0.119,0.289 0.281,0.555 0.486,0.801 0.204,0.246 0.438,0.456 0.702,0.63 0.263,0.174 0.547,0.309 0.846,0.405 0.3,0.096 0.613,0.144 0.937,0.144 0.167,0 0.353,-0.029 0.556,-0.09 V -2.214 C 3.444,-2.189 3.3,-2.169 3.132,-2.15 2.964,-2.133 2.802,-2.124 2.646,-2.124 2.179,-2.124 1.782,-2.202 1.458,-2.357 1.134,-2.514 0.873,-2.727 0.675,-2.997 0.478,-3.267 0.336,-3.582 0.252,-3.941 0.168,-4.302 0.126,-4.691 0.126,-5.111 V -9.306 H -2.43 V 0 Z"
             style="fill:#ff6600;fill-opacity:1;fill-rule:nonzero;stroke:none"
             id="path90" />
        </g>
        <g
           id="g92"
           transform="translate(156.441,33.4213)">
          <path
             d="m 0,0 v -1.26 h 0.036 c 0.335,0.48 0.741,0.852 1.215,1.116 0.474,0.264 1.017,0.396 1.629,0.396 0.588,0 1.125,-0.114 1.61,-0.342 0.487,-0.227 0.856,-0.63 1.108,-1.206 0.276,0.408 0.65,0.768 1.125,1.08 0.474,0.313 1.035,0.468 1.683,0.468 0.492,0 0.948,-0.06 1.367,-0.18 0.42,-0.12 0.781,-0.312 1.081,-0.576 0.3,-0.264 0.534,-0.609 0.703,-1.035 0.167,-0.426 0.252,-0.939 0.252,-1.539 V -9.306 H 9.252 v 5.275 c 0,0.311 -0.012,0.605 -0.036,0.882 -0.025,0.275 -0.09,0.515 -0.198,0.719 -0.108,0.204 -0.267,0.367 -0.477,0.487 -0.21,0.119 -0.495,0.179 -0.855,0.179 -0.36,0 -0.651,-0.069 -0.874,-0.207 C 6.591,-2.108 6.417,-2.289 6.291,-2.511 6.165,-2.732 6.081,-2.984 6.039,-3.267 5.996,-3.549 5.977,-3.834 5.977,-4.122 V -9.306 H 3.42 v 5.22 c 0,0.276 -0.006,0.549 -0.018,0.819 -0.012,0.27 -0.063,0.519 -0.153,0.747 -0.09,0.228 -0.24,0.412 -0.45,0.549 -0.21,0.138 -0.52,0.207 -0.927,0.207 -0.12,0 -0.279,-0.027 -0.477,-0.081 C 1.197,-1.898 1.005,-2.001 0.818,-2.15 0.633,-2.301 0.474,-2.517 0.342,-2.799 0.21,-3.081 0.145,-3.45 0.145,-3.905 V -9.306 H -2.412 V 0 Z"
             style="fill:#ff6600;fill-opacity:1;fill-rule:nonzero;stroke:none"
             id="path94" />
        </g>
        <path
           d="m 172.893,24.116 h -2.556 v 9.306 h 2.556 z m -2.556,12.851 h 2.556 v -2.105 h -2.556 z"
           style="fill:#ff6600;fill-opacity:1;fill-rule:nonzero;stroke:none"
           id="path96" />
        <g
           id="g98"
           transform="translate(177.3394,33.4213)">
          <path
             d="m 0,0 v -1.296 h 0.054 c 0.323,0.54 0.743,0.934 1.259,1.18 0.517,0.245 1.044,0.368 1.584,0.368 0.685,0 1.246,-0.093 1.683,-0.278 0.439,-0.187 0.783,-0.445 1.035,-0.775 0.252,-0.33 0.43,-0.732 0.531,-1.206 C 6.248,-2.48 6.3,-3.006 6.3,-3.582 V -9.306 H 3.744 v 5.256 c 0,0.768 -0.121,1.341 -0.36,1.719 -0.24,0.378 -0.666,0.567 -1.279,0.567 -0.695,0 -1.199,-0.207 -1.511,-0.621 C 0.281,-2.799 0.125,-3.479 0.125,-4.428 V -9.306 H -2.43 V 0 Z"
             style="fill:#ff6600;fill-opacity:1;fill-rule:nonzero;stroke:none"
             id="path100" />
        </g>
        <g
           id="g102"
           transform="translate(191.3785,28.6694)">
          <path
             d="M 0,0 C -0.107,-0.096 -0.243,-0.171 -0.405,-0.225 -0.566,-0.278 -0.741,-0.323 -0.928,-0.359 -1.113,-0.396 -1.309,-0.426 -1.512,-0.45 -1.717,-0.474 -1.92,-0.504 -2.124,-0.54 -2.316,-0.576 -2.506,-0.624 -2.691,-0.684 -2.877,-0.744 -3.039,-0.825 -3.178,-0.927 -3.314,-1.028 -3.426,-1.158 -3.51,-1.313 -3.594,-1.47 -3.637,-1.668 -3.637,-1.907 c 0,-0.229 0.043,-0.421 0.127,-0.576 0.084,-0.157 0.197,-0.28 0.342,-0.37 0.145,-0.089 0.313,-0.153 0.504,-0.189 0.191,-0.036 0.39,-0.054 0.594,-0.054 0.504,0 0.894,0.084 1.17,0.252 0.276,0.168 0.48,0.369 0.612,0.604 0.132,0.233 0.213,0.47 0.243,0.711 C -0.016,-1.29 0,-1.098 0,-0.954 Z m -5.904,1.891 c 0.036,0.599 0.185,1.097 0.45,1.494 0.264,0.395 0.6,0.713 1.008,0.953 0.408,0.24 0.867,0.411 1.378,0.514 0.509,0.101 1.021,0.152 1.538,0.152 0.468,0 0.942,-0.033 1.423,-0.099 C 0.371,4.839 0.811,4.71 1.206,4.519 1.602,4.326 1.926,4.06 2.178,3.718 2.43,3.375 2.557,2.922 2.557,2.358 v -4.841 c 0,-0.421 0.023,-0.823 0.071,-1.206 C 2.676,-4.074 2.76,-4.362 2.88,-4.554 H 0.288 C 0.24,-4.41 0.201,-4.263 0.171,-4.112 0.141,-3.963 0.119,-3.81 0.107,-3.653 -0.301,-4.074 -0.78,-4.368 -1.332,-4.536 c -0.553,-0.168 -1.116,-0.252 -1.691,-0.252 -0.446,0 -0.86,0.055 -1.243,0.162 -0.384,0.108 -0.72,0.276 -1.007,0.504 -0.289,0.228 -0.514,0.517 -0.676,0.864 -0.162,0.348 -0.242,0.762 -0.242,1.242 0,0.528 0.091,0.963 0.278,1.305 0.186,0.342 0.426,0.615 0.72,0.819 0.295,0.204 0.631,0.357 1.007,0.459 0.379,0.102 0.76,0.183 1.144,0.244 0.384,0.059 0.762,0.107 1.134,0.143 0.372,0.036 0.702,0.09 0.99,0.162 0.288,0.072 0.516,0.177 0.684,0.316 0.168,0.137 0.246,0.339 0.234,0.602 0,0.277 -0.045,0.495 -0.135,0.657 -0.09,0.163 -0.211,0.288 -0.36,0.378 -0.15,0.09 -0.323,0.15 -0.523,0.18 -0.197,0.03 -0.41,0.045 -0.638,0.045 -0.504,0 -0.901,-0.107 -1.188,-0.323 -0.288,-0.217 -0.457,-0.576 -0.504,-1.08 z"
             style="fill:#ff6600;fill-opacity:1;fill-rule:nonzero;stroke:none"
             id="path104" />
        </g>
        <path
           d="m 198.543,24.116 h -2.557 v 12.852 h 2.557 z"
           style="fill:#ff6600;fill-opacity:1;fill-rule:nonzero;stroke:none"
           id="path106" />
        <g
           id="g108"
           transform="translate(202.7096,26.4291)">
          <path
             d="m 0,0 c 0.114,-0.198 0.261,-0.36 0.44,-0.486 0.181,-0.126 0.388,-0.22 0.622,-0.28 0.234,-0.059 0.477,-0.089 0.729,-0.089 0.181,0 0.369,0.02 0.567,0.063 0.198,0.041 0.377,0.107 0.539,0.197 0.163,0.09 0.297,0.21 0.406,0.361 0.108,0.149 0.162,0.338 0.162,0.567 C 3.465,0.717 3.21,1.005 2.7,1.196 2.19,1.389 1.479,1.58 0.567,1.772 0.194,1.856 -0.169,1.955 -0.522,2.069 -0.876,2.184 -1.19,2.333 -1.468,2.52 c -0.275,0.185 -0.498,0.419 -0.665,0.702 -0.169,0.281 -0.253,0.627 -0.253,1.035 0,0.599 0.117,1.092 0.352,1.475 0.234,0.384 0.543,0.687 0.928,0.91 0.382,0.221 0.815,0.378 1.294,0.467 0.481,0.09 0.973,0.135 1.477,0.135 0.504,0 0.992,-0.048 1.467,-0.143 C 3.606,7.004 4.028,6.843 4.401,6.614 4.772,6.387 5.082,6.084 5.328,5.705 5.573,5.327 5.721,4.851 5.769,4.274 H 3.339 C 3.303,4.767 3.116,5.1 2.78,5.273 2.444,5.447 2.049,5.534 1.593,5.534 1.448,5.534 1.293,5.525 1.125,5.508 0.956,5.489 0.804,5.45 0.666,5.391 0.528,5.33 0.411,5.243 0.315,5.13 0.219,5.016 0.171,4.862 0.171,4.671 0.171,4.442 0.255,4.257 0.423,4.112 0.591,3.969 0.81,3.852 1.08,3.762 1.351,3.672 1.659,3.591 2.007,3.519 2.354,3.446 2.709,3.368 3.069,3.284 3.44,3.2 3.804,3.099 4.157,2.979 4.512,2.858 4.827,2.699 5.103,2.502 5.379,2.304 5.601,2.058 5.769,1.764 5.937,1.47 6.021,1.106 6.021,0.675 6.021,0.062 5.897,-0.45 5.651,-0.864 5.405,-1.278 5.085,-1.611 4.688,-1.863 4.293,-2.115 3.84,-2.293 3.33,-2.395 2.819,-2.496 2.301,-2.548 1.772,-2.548 c -0.539,0 -1.068,0.055 -1.584,0.162 -0.515,0.109 -0.974,0.288 -1.376,0.54 -0.403,0.252 -0.732,0.585 -0.991,0.999 -0.258,0.414 -0.398,0.934 -0.422,1.558 h 2.43 C -0.171,0.435 -0.114,0.197 0,0"
             style="fill:#ff6600;fill-opacity:1;fill-rule:nonzero;stroke:none"
             id="path110" />
        </g>
        <g
           id="g112"
           transform="translate(42.4913,23.4764)">
          <path
             d="M 0,0 V 2.068 H -1.25 V 0 c -10.018,0.327 -18.091,8.4 -18.418,18.418 h 2.068 v 1.25 h -2.068 c 0.327,10.018 8.4,18.092 18.418,18.419 V 36.118 H 0 v 1.969 C 10.018,37.76 18.092,29.686 18.419,19.668 H 17.11 16.42 v -1.25 h 0.69 1.309 C 18.092,8.4 10.018,0.327 0,0 M 19.669,19.668 C 19.341,30.376 10.708,39.009 0,39.337 v 3.531 H -1.25 V 39.337 C -11.957,39.009 -20.59,30.376 -20.918,19.668 h -3.532 v -1.25 h 3.532 C -20.59,7.711 -11.957,-0.922 -1.25,-1.25 V -4.782 H 0 v 3.532 c 10.708,0.328 19.341,8.96 19.669,19.668 h 146.278 v 1.25 z"
             style="fill:#ff6600;fill-opacity:1;fill-rule:nonzero;stroke:none"
             id="path114" />
        </g>
        <g
           id="g116"
           transform="translate(45.7496,28.7922)">
          <path
             d="M 0,0 C 1.263,1.258 2.317,3.125 3.072,5.403 H 7.739 C 5.861,2.819 3.151,0.887 0,0 m -15.506,5.403 h 4.667 c 0.756,-2.278 1.81,-4.145 3.072,-5.403 -3.151,0.887 -5.861,2.819 -7.739,5.403 m 7.739,22.252 c -1.28,-1.277 -2.346,-3.18 -3.103,-5.502 h -4.71 c 1.88,2.633 4.621,4.603 7.813,5.502 M 7.814,22.153 H 3.104 C 2.346,24.475 1.281,26.378 0,27.655 3.192,26.756 5.933,24.786 7.814,22.153 M 4.328,14.352 c -0.039,2.367 -0.342,4.582 -0.857,6.551 h 5.144 c 1.107,-1.948 1.764,-4.176 1.85,-6.551 z m -0.005,-1.25 h 6.132 C 10.337,10.761 9.664,8.569 8.555,6.653 H 3.446 c 0.517,1.937 0.823,4.119 0.877,6.449 M -3.262,6.653 v 6.449 H 3.073 C 3.014,10.777 2.674,8.58 2.12,6.653 Z m 0,-7.134 V 5.403 H 1.716 C 0.552,2.158 -1.244,-0.093 -3.262,-0.481 m -1.242,5.884 v -5.884 c -2.018,0.388 -3.814,2.639 -4.979,5.884 z m -6.336,7.699 h 6.336 V 6.653 h -5.382 c -0.555,1.927 -0.894,4.124 -0.954,6.449 m -1.255,1.25 h -6.137 c 0.087,2.375 0.744,4.603 1.85,6.551 h 5.145 c -0.516,-1.969 -0.818,-4.184 -0.858,-6.551 m 7.591,6.551 v -6.551 h -6.341 c 0.044,2.359 0.376,4.592 0.929,6.551 z m 0,7.232 v -5.982 h -5.015 c 1.163,3.298 2.976,5.591 5.015,5.982 m 6.653,-7.232 c 0.554,-1.959 0.886,-4.192 0.929,-6.551 h -6.34 v 6.551 z m -5.411,1.25 v 5.982 c 2.038,-0.391 3.851,-2.684 5.015,-5.982 z m -14.96,-9.051 h 6.132 c 0.054,-2.33 0.361,-4.512 0.877,-6.449 h -5.108 c -1.11,1.916 -1.783,4.108 -1.901,6.449 m 14.339,16.35 c -8.616,0 -15.625,-7.009 -15.625,-15.625 0,-8.615 7.009,-15.625 15.625,-15.625 8.615,0 15.625,7.01 15.625,15.625 0,8.616 -7.01,15.625 -15.625,15.625"
             style="fill:#222d37;fill-opacity:1;fill-rule:nonzero;stroke:none"
             id="path118" />
        </g>
      </g>
    </g>
  </g>
</svg>
